<svg xmlns="http://www.w3.org/2000/svg" width="234.712" height="71.277" viewBox="0 0 234.712 71.277">
  <g id="Grupo_8696" data-name="Grupo 8696" transform="translate(-210.969 -368.956)">
    <path id="Caminho_1" data-name="Caminho 1" d="M223.057,387.246v2.367l14.416,0a12.807,12.807,0,0,1,5.013,1.216,8.284,8.284,0,0,1,4.056,4.405,7.625,7.625,0,0,1,.419,2.574c.033,4.266-.012,19.546-.012,19.546h5.986V397.88a12.666,12.666,0,0,0-1.395-5.843,14.884,14.884,0,0,0-8.231-7.674,12.4,12.4,0,0,0-3.789-.709c-2.791-.021-8.786-.079-12.719-.118A3.709,3.709,0,0,0,223.057,387.246Z" transform="translate(-6.406 -7.726)" fill="#b50011"/>
    <path id="Caminho_2" data-name="Caminho 2" d="M237.6,416.935v2.088a3.463,3.463,0,0,1-3.462,3.463h-9.821a7.211,7.211,0,0,0-4.575,1.593,7.924,7.924,0,0,0-2.931,6.625c.081,2.2,1.619,7.047,5.306,7.265,3.5.207,15.579,0,15.579,0v6.041L223.414,444a11.757,11.757,0,0,1-5.428-1.51c-3.41-2.251-8.6-7.217-6.554-15.79a12.1,12.1,0,0,1,8.691-9.2,12.508,12.508,0,0,1,3.484-.517C227.583,416.922,237.6,416.748,237.6,416.935Z" transform="translate(0 -25.378)" fill="#b50011"/>
    <path id="Caminho_3" data-name="Caminho 3" d="M277.806,467.739h-3.985v-6.081H279.9v3.985A2.1,2.1,0,0,1,277.806,467.739Z" transform="translate(-33.305 -49.122)" fill="#d3d4cf"/>
    <path id="Caminho_4" data-name="Caminho 4" d="M341.471,414.912c0,9.318-6.706,18.707-17.859,18.707-6.212,0-10.306-2.542-12.989-5.86v24.97a1.9,1.9,0,0,1-1.906,1.906h-2.682a1.884,1.884,0,0,1-1.836-1.906V398.888a1.886,1.886,0,0,1,1.836-1.908h2.682a1.9,1.9,0,0,1,1.906,1.908v3.106c2.683-3.318,6.778-5.859,12.989-5.859C334.765,396.135,341.471,405.522,341.471,414.912Zm-6.636,0c0-7.272-4.448-12.707-11.86-12.707-7.835,0-12.353,5.577-12.353,12.707,0,7.06,4.518,12.635,12.353,12.635C330.388,427.547,334.835,422.112,334.835,414.912Z" transform="translate(-49.402 -14.402)" fill="#d3d4cf"/>
    <path id="Caminho_5" data-name="Caminho 5" d="M434.394,414.912a18.777,18.777,0,1,1-18.777-18.777A18.546,18.546,0,0,1,434.394,414.912Zm-6.564,0c0-7.342-5.153-12.707-12.213-12.707s-12.141,5.365-12.141,12.707c0,7.27,5.083,12.635,12.141,12.635S427.83,422.182,427.83,414.912Z" transform="translate(-98.491 -14.402)" fill="#d3d4cf"/>
    <path id="Caminho_6" data-name="Caminho 6" d="M496.5,368.956h2.683a1.839,1.839,0,0,1,1.834,1.906v45.6a1.84,1.84,0,0,1-1.834,1.906H496.5a1.9,1.9,0,0,1-1.906-1.906v-45.6A1.9,1.9,0,0,1,496.5,368.956Z" transform="translate(-150.287 0)" fill="#d3d4cf"/>
    <path id="Caminho_7" data-name="Caminho 7" d="M532.528,368.956h2.684a1.839,1.839,0,0,1,1.834,1.906v45.6a1.84,1.84,0,0,1-1.834,1.906h-2.684a1.9,1.9,0,0,1-1.906-1.906v-45.6A1.9,1.9,0,0,1,532.528,368.956Z" transform="translate(-169.38 0)" fill="#d3d4cf"/>
    <path id="Caminho_8" data-name="Caminho 8" d="M596.025,397.934a1.886,1.886,0,0,1,1.836,1.908v31.977a1.885,1.885,0,0,1-1.836,1.906h-2.682a1.9,1.9,0,0,1-1.908-1.906v-3.106a12.474,12.474,0,0,1-11.012,5.86c-8.048,0-13.765-6.636-13.765-14.26V399.842a1.9,1.9,0,0,1,1.906-1.908h2.684a1.884,1.884,0,0,1,1.834,1.908v18.635c0,5.012,2.19,10.023,8.9,10.023,6.776,0,9.458-5.788,9.458-10.023V399.842a1.9,1.9,0,0,1,1.908-1.908Z" transform="translate(-188.475 -15.355)" fill="#d3d4cf"/>
    <path id="Caminho_9" data-name="Caminho 9" d="M677.864,422.042c0,6.282-4.588,11.577-14.047,11.577-6.141,0-11.365-2.118-13.625-6.072a1.9,1.9,0,0,1,1.06-2.682l2.823-.988a1.907,1.907,0,0,1,2.188.776c.988,1.552,3.176,3.106,7.694,3.106,4.66,0,7.271-1.906,7.271-5.081,0-4.236-6-4.166-11.011-5.3-6.636-1.552-9.6-4.8-9.6-10.023,0-6.564,5.435-11.223,13.271-11.223,4.942,0,9.389,2.188,11.366,6.07a1.867,1.867,0,0,1-1.13,2.684l-2.542.706a1.809,1.809,0,0,1-2.046-.778c-.988-1.552-3.036-2.964-6.283-2.964-3.528,0-6.07,2.048-6.07,5.012,0,4.024,4.87,4.306,8.965,5.153C674.9,413.852,677.864,416.606,677.864,422.042Z" transform="translate(-232.62 -14.402)" fill="#d3d4cf"/>
    <g id="Grupo_1" data-name="Grupo 1" transform="translate(265.403 426.498)">
      <path id="Caminho_10" data-name="Caminho 10" d="M332.206,502.106c0,1.226-.9,2.26-2.744,2.26a2.955,2.955,0,0,1-2.66-1.185.371.371,0,0,1,.206-.525l.552-.192a.373.373,0,0,1,.427.151,1.638,1.638,0,0,0,1.5.607c.91,0,1.419-.373,1.419-.993,0-.827-1.172-.813-2.15-1.034-1.3-.3-1.875-.937-1.875-1.958a2.314,2.314,0,0,1,2.592-2.191,2.414,2.414,0,0,1,2.219,1.185.364.364,0,0,1-.22.524l-.5.138a.353.353,0,0,1-.4-.152,1.387,1.387,0,0,0-1.227-.58,1.052,1.052,0,0,0-1.186.98c0,.785.952.841,1.751,1.006C331.626,500.507,332.206,501.044,332.206,502.106Z" transform="translate(-326.758 -494.372)" fill="#d3d4cf"/>
      <path id="Caminho_11" data-name="Caminho 11" d="M348.673,500.713a3.667,3.667,0,1,1-3.667-3.666A3.622,3.622,0,0,1,348.673,500.713Zm-1.282,0a2.38,2.38,0,1,0-2.385,2.468A2.359,2.359,0,0,0,347.391,500.713Z" transform="translate(-334.484 -494.372)" fill="#d3d4cf"/>
      <path id="Caminho_12" data-name="Caminho 12" d="M361.361,491.738h.524a.359.359,0,0,1,.358.373v8.905a.359.359,0,0,1-.358.372h-.524a.371.371,0,0,1-.373-.372v-8.905A.371.371,0,0,1,361.361,491.738Z" transform="translate(-344.896 -491.559)" fill="#d3d4cf"/>
      <path id="Caminho_13" data-name="Caminho 13" d="M374.32,497.4a.368.368,0,0,1,.359.372v6.245a.368.368,0,0,1-.359.372H373.8a.37.37,0,0,1-.372-.372v-.607a2.439,2.439,0,0,1-2.151,1.144,2.713,2.713,0,0,1-2.688-2.784v-4a.371.371,0,0,1,.373-.372h.524a.367.367,0,0,1,.358.372v3.64c0,.978.427,1.958,1.737,1.958a1.857,1.857,0,0,0,1.848-1.958v-3.64a.37.37,0,0,1,.372-.372Z" transform="translate(-348.921 -494.559)" fill="#d3d4cf"/>
      <path id="Caminho_14" data-name="Caminho 14" d="M391.112,502.313a.379.379,0,0,1,.468-.1l.428.233a.376.376,0,0,1,.11.552,3.573,3.573,0,0,1-2.855,1.365h-.055l-.261.524c.841-.083,1.6.29,1.6,1.282a1.533,1.533,0,0,1-1.7,1.489,2.487,2.487,0,0,1-.952-.179.24.24,0,0,1-.124-.345l.193-.344a.256.256,0,0,1,.3-.11,1.278,1.278,0,0,0,.5.1c.565,0,.9-.289.9-.717,0-.385-.261-.606-.7-.606a1.151,1.151,0,0,0-.441.083.264.264,0,0,1-.276-.083l-.111-.152a.258.258,0,0,1-.027-.261l.372-.745a3.668,3.668,0,0,1,.785-7.251,3.573,3.573,0,0,1,2.855,1.365.374.374,0,0,1-.11.55l-.428.235a.381.381,0,0,1-.468-.1,2.292,2.292,0,0,0-1.849-.869,2.477,2.477,0,0,0,0,4.949A2.3,2.3,0,0,0,391.112,502.313Z" transform="translate(-357.936 -494.372)" fill="#d3d4cf"/>
      <path id="Caminho_15" data-name="Caminho 15" d="M409.764,498.174a3.667,3.667,0,1,1-3.667-3.666A3.622,3.622,0,0,1,409.764,498.174Zm-1.282,0a2.38,2.38,0,1,0-2.385,2.468A2.359,2.359,0,0,0,408.482,498.174Zm-.552-5.859a.253.253,0,0,1,.193.3,1.106,1.106,0,0,1-1.13,1.006c-.676,0-1.158-.456-1.682-.456a.462.462,0,0,0-.441.359.268.268,0,0,1-.276.165l-.345-.068a.248.248,0,0,1-.206-.29c.18-.689.551-1.007,1.13-1.007.621,0,1.131.456,1.668.456a.46.46,0,0,0,.469-.358.236.236,0,0,1,.276-.166Z" transform="translate(-366.855 -491.833)" fill="#d3d4cf"/>
      <path id="Caminho_16" data-name="Caminho 16" d="M428.123,500.768a.488.488,0,0,1-.482.482h-5.115a2.273,2.273,0,0,0,2.427,1.931,2.463,2.463,0,0,0,1.639-.593.353.353,0,0,1,.441-.028l.414.262a.369.369,0,0,1,.083.565,3.712,3.712,0,1,1-2.8-6.341A3.429,3.429,0,0,1,428.123,500.768Zm-1.31-.606a2.02,2.02,0,0,0-2.082-1.93,2.154,2.154,0,0,0-2.206,1.93Z" transform="translate(-376.802 -494.372)" fill="#d3d4cf"/>
      <path id="Caminho_17" data-name="Caminho 17" d="M444.389,502.106c0,1.226-.9,2.26-2.744,2.26a2.955,2.955,0,0,1-2.66-1.185.371.371,0,0,1,.206-.525l.552-.192a.373.373,0,0,1,.427.151,1.637,1.637,0,0,0,1.5.607c.91,0,1.419-.373,1.419-.993,0-.827-1.171-.813-2.15-1.034-1.3-.3-1.875-.937-1.875-1.958a2.314,2.314,0,0,1,2.592-2.191,2.414,2.414,0,0,1,2.219,1.185.364.364,0,0,1-.22.524l-.5.138a.354.354,0,0,1-.4-.152,1.387,1.387,0,0,0-1.226-.58,1.052,1.052,0,0,0-1.186.98c0,.785.951.841,1.751,1.006C443.809,500.507,444.389,501.044,444.389,502.106Z" transform="translate(-386.202 -494.372)" fill="#d3d4cf"/>
      <path id="Caminho_18" data-name="Caminho 18" d="M468.937,497.213h.524a.371.371,0,0,1,.373.372v8.905a.371.371,0,0,1-.373.372h-.524a.367.367,0,0,1-.358-.372v-3.267a3.12,3.12,0,0,1-2.55,1.144,3.665,3.665,0,0,1,0-7.32,3.12,3.12,0,0,1,2.55,1.144v-.607A.367.367,0,0,1,468.937,497.213Zm-.358,3.5a2.322,2.322,0,0,0-2.426-2.481,2.48,2.48,0,0,0,0,4.949A2.318,2.318,0,0,0,468.579,500.713Z" transform="translate(-398.715 -494.372)" fill="#d3d4cf"/>
      <path id="Caminho_19" data-name="Caminho 19" d="M488.7,497.4a.368.368,0,0,1,.359.372v6.245a.368.368,0,0,1-.359.372h-.524a.37.37,0,0,1-.372-.372v-.607a2.439,2.439,0,0,1-2.151,1.144,2.713,2.713,0,0,1-2.688-2.784v-4a.371.371,0,0,1,.373-.372h.524a.368.368,0,0,1,.358.372v3.64c0,.978.427,1.958,1.737,1.958a1.858,1.858,0,0,0,1.848-1.958v-3.64a.37.37,0,0,1,.372-.372Z" transform="translate(-409.531 -494.559)" fill="#d3d4cf"/>
      <path id="Caminho_20" data-name="Caminho 20" d="M506.9,500.768a.488.488,0,0,1-.482.482H501.3a2.273,2.273,0,0,0,2.427,1.931,2.464,2.464,0,0,0,1.64-.593.353.353,0,0,1,.441-.028l.414.262a.369.369,0,0,1,.083.565,3.712,3.712,0,1,1-2.8-6.341A3.429,3.429,0,0,1,506.9,500.768Zm-1.31-.606a2.021,2.021,0,0,0-2.082-1.93,2.154,2.154,0,0,0-2.206,1.93Z" transform="translate(-418.546 -494.372)" fill="#d3d4cf"/>
      <path id="Caminho_21" data-name="Caminho 21" d="M530.231,496.95h-1.255v3.06c0,.993.028,1.654,1.1,1.654h.193a.3.3,0,0,1,.33.3v.509a.3.3,0,0,1-.276.3,3.683,3.683,0,0,1-.4.028c-1.53,0-2.206-.814-2.206-2.358v-3.5H526.9a.372.372,0,0,1-.373-.373v-.455a.371.371,0,0,1,.373-.372h.826v-1.1a.368.368,0,0,1,.372-.359h.51a.368.368,0,0,1,.372.359v1.1h1.255a.37.37,0,0,1,.372.372v.455A.371.371,0,0,1,530.231,496.95Z" transform="translate(-432.61 -492.911)" fill="#d3d4cf"/>
      <path id="Caminho_22" data-name="Caminho 22" d="M543.013,497.075a.244.244,0,0,1,.276.234v.9a.258.258,0,0,1-.261.248c-1.834-.1-2.082,1.393-2.082,2.634v2.757a.367.367,0,0,1-.358.372h-.524a.371.371,0,0,1-.373-.372V497.6a.371.371,0,0,1,.373-.372h.524a.368.368,0,0,1,.358.372v.841A2.515,2.515,0,0,1,543.013,497.075Z" transform="translate(-439.588 -494.386)" fill="#d3d4cf"/>
      <path id="Caminho_23" data-name="Caminho 23" d="M556.281,497.213h.524a.371.371,0,0,1,.373.372v6.245a.371.371,0,0,1-.373.372h-.524a.37.37,0,0,1-.372-.372v-.606a3.073,3.073,0,0,1-2.536,1.144,3.665,3.665,0,0,1,0-7.32,3.073,3.073,0,0,1,2.536,1.144v-.607A.37.37,0,0,1,556.281,497.213Zm-.372,3.5a2.311,2.311,0,0,0-2.413-2.481,2.48,2.48,0,0,0,0,4.949A2.308,2.308,0,0,0,555.909,500.713Z" transform="translate(-444.997 -494.372)" fill="#d3d4cf"/>
      <path id="Caminho_24" data-name="Caminho 24" d="M576.4,499.832v4a.37.37,0,0,1-.372.372h-.524a.368.368,0,0,1-.359-.372v-3.64c0-.978-.428-1.958-1.737-1.958a1.865,1.865,0,0,0-1.847,1.958v3.64a.371.371,0,0,1-.373.372h-.524a.359.359,0,0,1-.359-.372v-6.245a.359.359,0,0,1,.359-.372h.524a.371.371,0,0,1,.373.372v.607a2.466,2.466,0,0,1,2.15-1.144A2.713,2.713,0,0,1,576.4,499.832Z" transform="translate(-455.812 -494.372)" fill="#d3d4cf"/>
      <path id="Caminho_25" data-name="Caminho 25" d="M592.588,502.106c0,1.226-.9,2.26-2.744,2.26a2.956,2.956,0,0,1-2.66-1.185.371.371,0,0,1,.207-.525l.551-.192a.374.374,0,0,1,.428.151,1.638,1.638,0,0,0,1.5.607c.91,0,1.42-.373,1.42-.993,0-.827-1.171-.813-2.15-1.034-1.3-.3-1.875-.937-1.875-1.958a2.314,2.314,0,0,1,2.592-2.191,2.414,2.414,0,0,1,2.219,1.185.364.364,0,0,1-.22.524l-.5.138a.353.353,0,0,1-.4-.152,1.387,1.387,0,0,0-1.226-.58,1.052,1.052,0,0,0-1.186.98c0,.785.952.841,1.751,1.006C592.009,500.507,592.588,501.044,592.588,502.106Z" transform="translate(-464.731 -494.372)" fill="#d3d4cf"/>
      <path id="Caminho_26" data-name="Caminho 26" d="M603.785,494.2h1.254a.37.37,0,0,1,.372.372v.455a.371.371,0,0,1-.372.373h-1.254v5.418a.367.367,0,0,1-.358.372H602.9a.37.37,0,0,1-.372-.372V495.4h-.745a.369.369,0,0,1-.359-.373v-.455a.368.368,0,0,1,.359-.372h.745c0-1.476.482-2.84,2.4-2.84.069,0,.124.014.18.014a.306.306,0,0,1,.3.3v.427a.311.311,0,0,1-.317.317h-.027C603.95,492.418,603.8,493.135,603.785,494.2Z" transform="translate(-472.301 -491.357)" fill="#d3d4cf"/>
      <path id="Caminho_27" data-name="Caminho 27" d="M619.967,500.713a3.667,3.667,0,1,1-3.668-3.666A3.622,3.622,0,0,1,619.967,500.713Zm-1.282,0a2.38,2.38,0,1,0-2.386,2.468A2.359,2.359,0,0,0,618.685,500.713Z" transform="translate(-478.239 -494.372)" fill="#d3d4cf"/>
      <path id="Caminho_28" data-name="Caminho 28" d="M635.6,497.075a.244.244,0,0,1,.276.234v.9a.259.259,0,0,1-.261.248c-1.834-.1-2.082,1.393-2.082,2.634v2.757a.368.368,0,0,1-.359.372h-.524a.37.37,0,0,1-.373-.372V497.6a.37.37,0,0,1,.373-.372h.524a.368.368,0,0,1,.359.372v.841A2.515,2.515,0,0,1,635.6,497.075Z" transform="translate(-488.651 -494.386)" fill="#d3d4cf"/>
      <path id="Caminho_29" data-name="Caminho 29" d="M653.784,499.583v4.246a.367.367,0,0,1-.357.372H652.9a.37.37,0,0,1-.372-.372v-3.887c0-.98-.483-1.71-1.489-1.71a1.581,1.581,0,0,0-1.543,1.71v3.887a.368.368,0,0,1-.359.372h-.524a.371.371,0,0,1-.373-.372v-3.887c0-.98-.482-1.71-1.488-1.71a1.581,1.581,0,0,0-1.544,1.71v3.887a.368.368,0,0,1-.359.372h-.524a.371.371,0,0,1-.373-.372v-6.245a.371.371,0,0,1,.373-.372h.524a.368.368,0,0,1,.359.372v.455a2.237,2.237,0,0,1,1.888-.992,2.358,2.358,0,0,1,2,1.116,2.656,2.656,0,0,1,2.232-1.116A2.46,2.46,0,0,1,653.784,499.583Z" transform="translate(-494.836 -494.372)" fill="#d3d4cf"/>
      <path id="Caminho_30" data-name="Caminho 30" d="M675.3,497.213h.524a.371.371,0,0,1,.373.372v6.245a.371.371,0,0,1-.373.372H675.3a.37.37,0,0,1-.372-.372v-.606a3.072,3.072,0,0,1-2.536,1.144,3.665,3.665,0,0,1,0-7.32,3.072,3.072,0,0,1,2.536,1.144v-.607A.37.37,0,0,1,675.3,497.213Zm-.372,3.5a2.311,2.311,0,0,0-2.412-2.481,2.48,2.48,0,0,0,0,4.949A2.308,2.308,0,0,0,674.924,500.713Z" transform="translate(-508.062 -494.372)" fill="#d3d4cf"/>
      <path id="Caminho_31" data-name="Caminho 31" d="M699.156,499.583v4.246a.367.367,0,0,1-.357.372h-.525a.37.37,0,0,1-.372-.372v-3.887c0-.98-.482-1.71-1.489-1.71a1.581,1.581,0,0,0-1.543,1.71v3.887a.368.368,0,0,1-.358.372h-.524a.37.37,0,0,1-.373-.372v-3.887c0-.98-.482-1.71-1.489-1.71a1.581,1.581,0,0,0-1.543,1.71v3.887a.368.368,0,0,1-.358.372H689.7a.37.37,0,0,1-.373-.372v-6.245a.371.371,0,0,1,.373-.372h.524a.368.368,0,0,1,.358.372v.455a2.238,2.238,0,0,1,1.888-.992,2.359,2.359,0,0,1,2,1.116,2.656,2.656,0,0,1,2.233-1.116A2.46,2.46,0,0,1,699.156,499.583Z" transform="translate(-518.878 -494.372)" fill="#d3d4cf"/>
    </g>
  </g>
</svg>
